<svg xmlns="http://www.w3.org/2000/svg" width="64" height="64" viewBox="0 0 64 64" fill="none">
  <defs>
    <clipPath id="circleClip">
      <circle cx="32" cy="32" r="30" />
    </clipPath>
  </defs>
  <g clip-path="url(#circleClip)">
    <rect x="2" y="2" width="60" height="60" fill="#fff"/>
    <rect x="2" y="2" width="60" height="30" fill="#EF3340"/>
    <path d="M22.5 19.5C22.5 25.299 17.799 30 12 30C10.4 30 8.88 29.644 7.518 29.008C10.153 31.664 13.81 33.3 17.85 33.3C25.883 33.3 32.4 26.783 32.4 18.75C32.4 14.71 30.764 11.053 28.108 8.418C28.744 9.78 29.1 11.3 29.1 12.9C29.1 18.699 24.399 23.4 18.6 23.4C17.19 23.4 15.846 23.122 14.618 22.617C16.151 20.798 18.445 19.65 21 19.65C21.518 19.65 22.016 19.697 22.5 19.786V19.5Z" fill="#fff" transform="translate(8 3)"/>
    <g fill="#fff" transform="translate(22 10)">
      <path d="M6 0l1.176 3.618h3.804l-3.078 2.236 1.176 3.618L6 7.236 2.922 9.472 4.098 5.854 1.02 3.618h3.804L6 0z" transform="scale(0.46) translate(0 2)"/>
      <path d="M6 0l1.176 3.618h3.804l-3.078 2.236 1.176 3.618L6 7.236 2.922 9.472 4.098 5.854 1.02 3.618h3.804L6 0z" transform="scale(0.46) translate(13 2)"/>
      <path d="M6 0l1.176 3.618h3.804l-3.078 2.236 1.176 3.618L6 7.236 2.922 9.472 4.098 5.854 1.02 3.618h3.804L6 0z" transform="scale(0.46) translate(6.5 10)"/>
      <path d="M6 0l1.176 3.618h3.804l-3.078 2.236 1.176 3.618L6 7.236 2.922 9.472 4.098 5.854 1.02 3.618h3.804L6 0z" transform="scale(0.46) translate(0 18)"/>
      <path d="M6 0l1.176 3.618h3.804l-3.078 2.236 1.176 3.618L6 7.236 2.922 9.472 4.098 5.854 1.02 3.618h3.804L6 0z" transform="scale(0.46) translate(13 18)"/>
    </g>
  </g>
  <circle cx="32" cy="32" r="30" stroke="rgba(255,255,255,0.4)" stroke-width="2"/>
</svg>
