<svg xmlns="http://www.w3.org/2000/svg" width="64" height="64" viewBox="0 0 64 64">
  <circle cx="32" cy="32" r="31" fill="#ffffff" stroke="rgba(255,255,255,0.45)" stroke-width="2"/>
  <path d="M1 32H63V1H1V32Z" fill="#EF3340"/>
  <g transform="translate(10 8)">
    <path d="M14 4.5C11.6 4.5 9.5 5.8 8.4 7.7C9.2 7.4 10.1 7.2 11 7.2C14.9 7.2 18 10.3 18 14.2C18 16.2 17.2 18 15.9 19.2C18.9 18.5 21.2 15.8 21.2 12.6C21.2 8.1 17.5 4.5 13 4.5H14Z" fill="#ffffff"/>
    <circle cx="14.6" cy="12.6" r="5.2" fill="#EF3340"/>
    <g fill="#ffffff">
      <path d="M24 4l0.95 2.31L27.4 6.5l-1.87 1.56L26.1 10.5 24 9.14 21.9 10.5l0.57-2.44L20.6 6.5l2.45-0.19L24 4Z"/>
      <path d="M31 7l0.95 2.31L34.4 9.5l-1.87 1.56L33.1 13.5 31 12.14 28.9 13.5l0.57-2.44L27.6 9.5l2.45-0.19L31 7Z"/>
      <path d="M31 15l0.95 2.31L34.4 17.5l-1.87 1.56L33.1 21.5 31 20.14 28.9 21.5l0.57-2.44L27.6 17.5l2.45-0.19L31 15Z"/>
      <path d="M24 18l0.95 2.31L27.4 20.5l-1.87 1.56L26.1 24.5 24 23.14 21.9 24.5l0.57-2.44L20.6 20.5l2.45-0.19L24 18Z"/>
      <path d="M18 11l0.95 2.31L21.4 13.5l-1.87 1.56L20.1 17.5 18 16.14 15.9 17.5l0.57-2.44L14.6 13.5l2.45-0.19L18 11Z"/>
    </g>
  </g>
</svg>
