<svg width="1600" height="900" viewBox="0 0 1600 900" fill="none" xmlns="http://www.w3.org/2000/svg">
  <rect width="1600" height="900" fill="#05070B"/>
  <rect width="1600" height="900" fill="url(#bgGlow)"/>
  <path d="M0 680H1600" stroke="#1B2330" stroke-width="6"/>
  <path d="M0 720H1600" stroke="#111722" stroke-width="2" stroke-dasharray="22 22"/>
  <g opacity="0.32">
    <rect x="1020" y="60" width="170" height="420" fill="#0B1220"/>
    <rect x="1220" y="110" width="120" height="370" fill="#0A111C"/>
    <rect x="1380" y="40" width="110" height="440" fill="#09101A"/>
    <rect x="1140" y="190" width="50" height="290" fill="#1F2D42"/>
    <rect x="1280" y="170" width="18" height="310" fill="#FF2D55" opacity="0.45"/>
    <rect x="1460" y="120" width="18" height="360" fill="#7C3AED" opacity="0.45"/>
  </g>
  <g opacity="0.18">
    <rect x="170" y="100" width="180" height="400" fill="#0B1220"/>
    <rect x="380" y="50" width="140" height="450" fill="#0A111C"/>
    <rect x="550" y="150" width="90" height="350" fill="#09101A"/>
    <rect x="430" y="180" width="20" height="320" fill="#00E5FF" opacity="0.6"/>
  </g>
  <ellipse cx="950" cy="640" rx="280" ry="60" fill="#FF2D55" opacity="0.16"/>
  <ellipse cx="945" cy="650" rx="240" ry="32" fill="#00E5FF" opacity="0.1"/>
  <g filter="url(#carShadow)">
    <path d="M505 602L585 531C612 507 655 492 702 492H883C931 492 967 503 997 528L1068 587C1089 590 1111 596 1132 605C1164 618 1189 638 1208 663L1260 664C1279 664 1294 679 1294 698V716C1294 735 1279 750 1260 750H1225C1220 786 1189 815 1152 815C1115 815 1084 786 1079 750H733C728 786 697 815 660 815C622 815 592 786 586 750H510C487 750 468 731 468 708V671C468 641 483 615 505 602Z" fill="url(#carBody)"/>
    <path d="M624 531L706 531L766 489H876C916 489 948 500 974 522L1028 575H929L876 520H772L717 575H585L624 531Z" fill="#121826"/>
    <path d="M742 520H864L904 560H700L742 520Z" fill="url(#glass)"/>
    <path d="M508 661H1282" stroke="#0C111A" stroke-width="8" opacity="0.6"/>
    <path d="M495 684H1264" stroke="#FF2D55" stroke-width="4" opacity="0.5"/>
    <path d="M493 690H1266" stroke="#00E5FF" stroke-width="1.5" opacity="0.45"/>
    <ellipse cx="660" cy="748" rx="73" ry="73" fill="#0C1018"/>
    <ellipse cx="660" cy="748" rx="45" ry="45" fill="#C9D2E3" opacity="0.9"/>
    <ellipse cx="660" cy="748" rx="20" ry="20" fill="#0C1018"/>
    <ellipse cx="1152" cy="748" rx="73" ry="73" fill="#0C1018"/>
    <ellipse cx="1152" cy="748" rx="45" ry="45" fill="#C9D2E3" opacity="0.9"/>
    <ellipse cx="1152" cy="748" rx="20" ry="20" fill="#0C1018"/>
    <rect x="1160" y="604" width="70" height="16" rx="8" fill="#FF5A6E"/>
    <rect x="534" y="605" width="52" height="14" rx="7" fill="#E9F8FF"/>
  </g>
  <g opacity="0.16">
    <path d="M0 760H1600" stroke="#1F2937" stroke-width="2"/>
    <path d="M0 790H1600" stroke="#111827" stroke-width="2"/>
  </g>
  <defs>
    <linearGradient id="carBody" x1="468" y1="653" x2="1294" y2="653" gradientUnits="userSpaceOnUse">
      <stop stop-color="#0F1724"/>
      <stop offset="0.4" stop-color="#141C2B"/>
      <stop offset="0.72" stop-color="#1B0F16"/>
      <stop offset="1" stop-color="#0B1320"/>
    </linearGradient>
    <linearGradient id="glass" x1="700" y1="540" x2="904" y2="540" gradientUnits="userSpaceOnUse">
      <stop stop-color="#89CFF0" stop-opacity="0.9"/>
      <stop offset="1" stop-color="#CBD5E1" stop-opacity="0.25"/>
    </linearGradient>
    <radialGradient id="bgGlow" cx="0" cy="0" r="1" gradientUnits="userSpaceOnUse" gradientTransform="translate(1110 200) rotate(111.029) scale(691.341 1254.78)">
      <stop stop-color="#631229"/>
      <stop offset="0.25" stop-color="#1D0C1F"/>
      <stop offset="0.65" stop-color="#070A10"/>
      <stop offset="1" stop-color="#040507"/>
    </radialGradient>
    <filter id="carShadow" x="432" y="469" width="896" height="380" filterUnits="userSpaceOnUse" color-interpolation-filters="sRGB">
      <feFlood flood-opacity="0" result="BackgroundImageFix"/>
      <feColorMatrix in="SourceAlpha" type="matrix" values="0 0 0 0 0 0 0 0 0 0 0 0 0 0 0 0 0 0 127 0" result="hardAlpha"/>
      <feOffset dy="10"/>
      <feGaussianBlur stdDeviation="18"/>
      <feComposite in2="hardAlpha" operator="out"/>
      <feColorMatrix type="matrix" values="0 0 0 0 0 0 0 0 0 0 0 0 0 0 0 0 0 0 0.45 0"/>
      <feBlend mode="normal" in2="BackgroundImageFix" result="effect1_dropShadow_1_2"/>
      <feBlend mode="normal" in="SourceGraphic" in2="effect1_dropShadow_1_2" result="shape"/>
    </filter>
  </defs>
</svg>
