<svg width="1600" height="900" viewBox="0 0 1600 900" fill="none" xmlns="http://www.w3.org/2000/svg">
  <rect width="1600" height="900" fill="#050811"/>
  <rect width="1600" height="900" fill="url(#bg)"/>
  <g opacity="0.95">
    <ellipse cx="1120" cy="255" rx="360" ry="240" fill="url(#glowA)"/>
    <ellipse cx="1000" cy="390" rx="300" ry="200" fill="url(#glowB)"/>
  </g>

  <g opacity="0.9" filter="url(#lightningBlur)">
    <path d="M765 160L705 260L760 250L702 372L805 292L748 294L822 166L765 160Z" fill="#CFFFFF"/>
    <path d="M1255 225L1207 304L1252 296L1191 401L1295 320L1241 321L1301 231L1255 225Z" fill="#B4F2FF"/>
    <path d="M976 116L944 175L979 170L933 245L1007 188L971 188L1015 122L976 116Z" fill="#A0E6FF"/>
    <path d="M900 492L858 554L901 547L850 631L934 567L890 567L944 500L900 492Z" fill="#A5EBFF"/>
  </g>

  <g filter="url(#shadow)">
    <path d="M1118 160C1078 126 1021 107 965 108C919 109 878 127 848 157L814 173L843 189C815 224 801 267 800 315C799 383 827 443 875 493C916 535 970 562 1027 565C1088 568 1151 544 1197 498C1244 452 1270 391 1271 326C1272 264 1248 210 1207 175L1234 156L1200 147C1178 135 1150 130 1118 160Z" fill="url(#body)"/>

    <path d="M908 142L945 101L965 138L1006 88L1021 135L1070 101L1073 146L1132 119L1120 167L1181 156L1154 201L1194 222L1141 236L1160 283L1110 275L1104 322L1060 297L1031 337L995 302L962 333L943 291L889 306L899 259L838 249L874 210L838 187L895 178L908 142Z" fill="#F5FBFF"/>

    <path d="M930 284C951 260 982 246 1021 243C1060 240 1094 251 1123 274C1100 272 1077 273 1057 277C1026 284 1004 298 988 319C975 335 966 354 960 376L901 367C902 333 912 305 930 284Z" fill="#E7F6FF"/>
    <path d="M893 383C922 358 962 344 1008 342C1059 339 1102 349 1141 369C1107 372 1077 378 1049 392C1010 411 984 439 967 475C934 459 911 437 898 409C894 401 892 392 893 383Z" fill="#D9F1FF"/>

    <rect x="929" y="372" width="214" height="28" rx="14" fill="#F7FBFF" opacity="0.95"/>
    <ellipse cx="988" cy="386" rx="13" ry="12" fill="#07101A"/>
    <ellipse cx="1088" cy="386" rx="13" ry="12" fill="#07101A"/>
    <path d="M998 464C1026 459 1054 459 1080 466C1061 489 1041 500 1017 501C993 502 975 491 959 470C975 469 987 468 998 464Z" fill="#BEE9FF"/>
  </g>

  <g opacity="0.65">
    <path d="M722 230C804 235 851 247 900 271" stroke="#87E8FF" stroke-width="4" stroke-linecap="round"/>
    <path d="M1254 270C1311 293 1353 326 1394 376" stroke="#72CFFF" stroke-width="4" stroke-linecap="round"/>
    <path d="M813 548C876 587 920 606 978 620" stroke="#6BC5FF" stroke-width="4" stroke-linecap="round"/>
  </g>

  <defs>
    <radialGradient id="bg" cx="0" cy="0" r="1" gradientUnits="userSpaceOnUse" gradientTransform="translate(1105 220) rotate(132.587) scale(960.334 1269.91)">
      <stop stop-color="#112744"/>
      <stop offset="0.28" stop-color="#0A1626"/>
      <stop offset="0.72" stop-color="#060A12"/>
      <stop offset="1" stop-color="#03050A"/>
    </radialGradient>
    <radialGradient id="glowA" cx="0" cy="0" r="1" gradientUnits="userSpaceOnUse" gradientTransform="translate(1120 255) rotate(90) scale(240 360)">
      <stop stop-color="#7FE6FF" stop-opacity="0.42"/>
      <stop offset="1" stop-color="#7FE6FF" stop-opacity="0"/>
    </radialGradient>
    <radialGradient id="glowB" cx="0" cy="0" r="1" gradientUnits="userSpaceOnUse" gradientTransform="translate(1000 390) rotate(90) scale(200 300)">
      <stop stop-color="#5F8FFF" stop-opacity="0.35"/>
      <stop offset="1" stop-color="#5F8FFF" stop-opacity="0"/>
    </radialGradient>
    <linearGradient id="body" x1="1036" y1="108" x2="1036" y2="565" gradientUnits="userSpaceOnUse">
      <stop stop-color="#0E1723"/>
      <stop offset="1" stop-color="#070D15"/>
    </linearGradient>
    <filter id="shadow" x="768" y="88" width="537" height="513" filterUnits="userSpaceOnUse" color-interpolation-filters="sRGB">
      <feFlood flood-opacity="0" result="BackgroundImageFix"/>
      <feColorMatrix in="SourceAlpha" type="matrix" values="0 0 0 0 0 0 0 0 0 0 0 0 0 0 0 0 0 0 127 0" result="hardAlpha"/>
      <feOffset dy="18"/>
      <feGaussianBlur stdDeviation="16"/>
      <feComposite in2="hardAlpha" operator="out"/>
      <feColorMatrix type="matrix" values="0 0 0 0 0 0 0 0 0 0 0 0 0 0 0 0 0 0 0.48 0"/>
      <feBlend mode="normal" in2="BackgroundImageFix" result="effect1_dropShadow_1_2"/>
      <feBlend mode="normal" in="SourceGraphic" in2="effect1_dropShadow_1_2" result="shape"/>
    </filter>
    <filter id="lightningBlur" x="686" y="100" width="629" height="551" filterUnits="userSpaceOnUse" color-interpolation-filters="sRGB">
      <feGaussianBlur stdDeviation="6"/>
    </filter>
  </defs>
</svg>
