<svg width="1600" height="900" viewBox="0 0 1600 900" fill="none" xmlns="http://www.w3.org/2000/svg">
  <rect width="1600" height="900" fill="#070B12"/>
  <rect width="1600" height="900" fill="url(#bg)"/>
  <g opacity="0.9">
    <ellipse cx="1130" cy="270" rx="320" ry="220" fill="url(#glowA)"/>
    <ellipse cx="980" cy="380" rx="260" ry="180" fill="url(#glowB)"/>
  </g>
  <g opacity="0.14">
    <path d="M0 710C180 640 320 620 480 626C690 634 801 728 1008 720C1206 712 1395 596 1600 546V900H0V710Z" fill="#0E1624"/>
  </g>
  <g opacity="0.85">
    <path d="M1041 220L1001 273L1040 268L998 329L1060 286L1024 286L1072 224L1041 220Z" fill="#C9F6FF"/>
    <path d="M1189 292L1157 332L1188 327L1148 382L1206 343L1176 343L1215 296L1189 292Z" fill="#A7F1FF" opacity="0.9"/>
    <path d="M925 346L892 390L926 384L882 444L944 399L909 399L959 350L925 346Z" fill="#8EEBFF" opacity="0.85"/>
  </g>
  <g filter="url(#shadow)">
    <path d="M1111 206C1094 181 1060 153 1020 140L1004 94L971 129L940 113L929 149C893 160 864 181 842 208C816 239 803 275 799 315C792 390 814 449 857 495C886 526 922 550 965 570L940 687L998 630L1033 731L1064 624C1111 610 1150 590 1185 562C1240 518 1280 454 1289 379C1299 301 1274 237 1220 205C1197 191 1170 185 1144 185L1111 206Z" fill="url(#body)"/>
    <path d="M930 158L970 112L996 147L1032 93L1050 145L1098 132L1086 179L1130 169L1120 212L1069 212L1040 244L997 212L968 236L956 196L914 192L930 158Z" fill="#F3FAFF"/>
    <path d="M954 287C969 264 991 248 1017 243C1047 238 1081 244 1108 264C1093 262 1078 262 1064 264C1039 268 1023 278 1008 295C995 310 986 328 981 350L934 345C934 322 940 302 954 287Z" fill="#E7F6FF"/>
    <path d="M914 353C937 334 965 323 1002 320C1040 317 1074 324 1109 339C1083 342 1058 346 1036 357C1005 372 984 397 967 430C946 417 930 401 919 381C914 372 912 362 914 353Z" fill="#D7F2FF" opacity="0.95"/>
    <rect x="941" y="343" width="184" height="28" rx="14" fill="#EDF7FF" opacity="0.92"/>
    <circle cx="991" cy="357" r="10" fill="#060B12"/>
    <circle cx="1072" cy="357" r="10" fill="#060B12"/>
    <path d="M1014 423C1040 418 1064 418 1087 424C1067 440 1047 448 1024 449C1003 450 986 442 968 428C985 427 1000 426 1014 423Z" fill="#C3EBFF"/>
  </g>
  <g opacity="0.6">
    <path d="M760 181C818 194 853 210 903 244" stroke="#79DFFF" stroke-width="4" stroke-linecap="round"/>
    <path d="M812 519C862 564 902 584 956 604" stroke="#6CCBFF" stroke-width="4" stroke-linecap="round"/>
    <path d="M1163 188C1220 204 1260 232 1304 278" stroke="#8EEBFF" stroke-width="4" stroke-linecap="round"/>
  </g>
  <defs>
    <radialGradient id="bg" cx="0" cy="0" r="1" gradientUnits="userSpaceOnUse" gradientTransform="translate(1120 250) rotate(133.58) scale(915.215 1221.65)">
      <stop stop-color="#0F2035"/>
      <stop offset="0.28" stop-color="#0B1320"/>
      <stop offset="0.72" stop-color="#070B12"/>
      <stop offset="1" stop-color="#04060B"/>
    </radialGradient>
    <radialGradient id="glowA" cx="0" cy="0" r="1" gradientUnits="userSpaceOnUse" gradientTransform="translate(1130 270) rotate(90) scale(220 320)">
      <stop stop-color="#79DFFF" stop-opacity="0.42"/>
      <stop offset="1" stop-color="#79DFFF" stop-opacity="0"/>
    </radialGradient>
    <radialGradient id="glowB" cx="0" cy="0" r="1" gradientUnits="userSpaceOnUse" gradientTransform="translate(980 380) rotate(90) scale(180 260)">
      <stop stop-color="#4A7DFF" stop-opacity="0.34"/>
      <stop offset="1" stop-color="#4A7DFF" stop-opacity="0"/>
    </radialGradient>
    <linearGradient id="body" x1="1044" y1="140" x2="1044" y2="731" gradientUnits="userSpaceOnUse">
      <stop stop-color="#111A27"/>
      <stop offset="0.65" stop-color="#0A1018"/>
      <stop offset="1" stop-color="#070B12"/>
    </linearGradient>
    <filter id="shadow" x="766" y="72" width="557" height="693" filterUnits="userSpaceOnUse" color-interpolation-filters="sRGB">
      <feFlood flood-opacity="0" result="BackgroundImageFix"/>
      <feColorMatrix in="SourceAlpha" type="matrix" values="0 0 0 0 0 0 0 0 0 0 0 0 0 0 0 0 0 0 127 0" result="hardAlpha"/>
      <feOffset dy="18"/>
      <feGaussianBlur stdDeviation="16"/>
      <feComposite in2="hardAlpha" operator="out"/>
      <feColorMatrix type="matrix" values="0 0 0 0 0 0 0 0 0 0 0 0 0 0 0 0 0 0 0.45 0"/>
      <feBlend mode="normal" in2="BackgroundImageFix" result="effect1_dropShadow_1_2"/>
      <feBlend mode="normal" in="SourceGraphic" in2="effect1_dropShadow_1_2" result="shape"/>
    </filter>
  </defs>
</svg>
